<mxfile host="app.diagrams.net" modified="2024-05-16T15:03:59.517Z" agent="Mozilla/5.0 (Macintosh; Intel Mac OS X 10_15_7) AppleWebKit/605.1.15 (KHTML, like Gecko) Version/17.3.1 Safari/605.1.15" version="24.4.2" etag="awoRX2_V8pil_JEgGZfZ" type="github">
  <diagram name="Pagina-1" id="QDjo2wwzjUcv8gB9wxzK">
    <mxGraphModel>
      <root>
        <mxCell id="0" />
        <mxCell id="1" parent="0" />
      </root>
    </mxGraphModel>
  </diagram>
</mxfile>
